<?xml version="1.0" encoding="utf-8"?>
<!-- Generator: Adobe Illustrator 24.0.0, SVG Export Plug-In . SVG Version: 6.00 Build 0)  -->
<svg version="1.1" id="Layer_1" xmlns="http://www.w3.org/2000/svg" xmlns:xlink="http://www.w3.org/1999/xlink" x="0px" y="0px"
	 viewBox="0 0 141.73 141.73" style="enable-background:new 0 0 141.73 141.73;" xml:space="preserve">
<style type="text/css">
	.st0{fill:#13017C;stroke:#FFFFFF;stroke-width:2;stroke-miterlimit:10;}
	.st1{fill:#01A0C6;stroke:#FFFFFF;stroke-width:2;stroke-miterlimit:10;}
</style>
<g>
	<g>
		<polygon class="st0" points="78.55,84.36 66.92,104.29 28.52,104.29 20.84,91 5.28,84.36 5.28,57.58 20.84,50.94 39.94,84.36 
			78.55,84.36 		"/>
		<polygon class="st1" points="86.23,70.87 97.85,91 78.55,124.42 63.19,124.42 49.7,134.39 26.45,121.1 28.52,104.29 66.92,104.29 
			86.23,70.87 		"/>
		<polygon class="st0" points="78.55,57.58 101.79,57.58 120.89,91 113.21,104.29 115.28,121.1 92.04,134.39 78.55,124.42 97.85,91 
			78.55,57.58 		"/>
		<polygon class="st1" points="63.19,57.58 74.81,37.45 113.21,37.45 120.89,50.94 136.45,57.58 136.45,84.36 120.89,91 
			101.79,57.58 63.19,57.58 		"/>
		<polygon class="st0" points="55.51,70.87 43.88,50.94 63.19,17.52 78.55,17.52 92.04,7.35 115.28,20.84 113.21,37.45 74.81,37.45 
			55.51,70.87 		"/>
		<polygon class="st1" points="63.19,84.36 39.94,84.36 20.84,50.94 28.52,37.45 26.45,20.84 49.7,7.35 63.19,17.52 43.88,50.94 
			63.19,84.36 		"/>
	</g>
</g>
</svg>
