<svg id="Layer_1" data-name="Layer 1" xmlns="http://www.w3.org/2000/svg" viewBox="0 0 130.6 127.16"><defs><style>.cls-1{fill:#f8a415;stroke:#000;stroke-miterlimit:10;stroke-width:3px;}</style></defs><title>vms-lg</title><polygon class="cls-1" points="72.77 76.71 61.47 96.1 24.11 96.1 16.64 83.17 1.5 76.71 1.5 50.66 16.64 44.2 35.22 76.71 72.77 76.71 72.77 76.71"/><polygon class="cls-1" points="80.24 63.59 91.55 83.17 72.77 115.68 57.83 115.68 44.71 125.38 22.09 112.45 24.11 96.1 61.47 96.1 80.24 63.59 80.24 63.59"/><polygon class="cls-1" points="72.77 50.66 95.39 50.66 113.96 83.17 106.49 96.1 108.51 112.45 85.89 125.38 72.77 115.68 91.55 83.17 72.77 50.66 72.77 50.66"/><polygon class="cls-1" points="57.83 50.66 69.14 31.08 106.49 31.08 113.96 44.2 129.1 50.66 129.1 76.71 113.96 83.17 95.39 50.66 57.83 50.66 57.83 50.66"/><polygon class="cls-1" points="50.36 63.59 39.05 44.2 57.83 11.69 72.77 11.69 85.89 1.8 108.51 14.92 106.49 31.08 69.14 31.08 50.36 63.59 50.36 63.59"/><polygon class="cls-1" points="57.83 76.71 35.22 76.71 16.64 44.2 24.11 31.08 22.09 14.92 44.71 1.8 57.83 11.69 39.05 44.2 57.83 76.71 57.83 76.71"/></svg>